<svg width="32" height="32" viewBox="0 0 32 32" fill="none" xmlns="http://www.w3.org/2000/svg">
<path d="M16 32C24.8366 32 32 24.8366 32 16C32 7.16344 24.8366 0 16 0C7.16344 0 0 7.16344 0 16C0 24.8366 7.16344 32 16 32Z" fill="#939393"/>
<path d="M12.762 7.33203C9.76375 7.33203 7.33594 9.75986 7.33594 12.7581V19.5268C7.33594 22.5251 9.76375 24.9529 12.762 24.9529H19.5238C22.522 24.9529 24.9498 22.5251 24.9498 19.5268V12.7651C24.9498 9.76681 22.522 7.33899 19.5307 7.33203H12.762ZM23.2594 18.8729C23.2594 21.2938 21.2977 23.2625 18.8768 23.2625H13.409C10.9881 23.2625 9.01941 21.3007 9.01941 18.8799V13.412C9.01941 10.9912 10.9812 9.02247 13.409 9.02247H18.8698C21.2907 9.02247 23.2594 10.9842 23.2594 13.412V18.8729Z" fill="white"/>
<path d="M16.3744 11.5352C13.8144 11.5352 11.7344 13.6152 11.7344 16.1752C11.7344 18.7352 13.8144 20.8152 16.3744 20.8152C18.9344 20.8152 21.0144 18.7352 21.0144 16.1752C21.0144 13.6152 18.9344 11.5352 16.3744 11.5352ZM16.3744 18.9717C14.83 18.9717 13.5848 17.7195 13.5848 16.1821C13.5848 14.6447 14.837 13.3925 16.3744 13.3925C17.9118 13.3925 19.1639 14.6447 19.1639 16.1821C19.1639 17.7265 17.9118 18.9717 16.3744 18.9717Z" fill="white"/>
<path d="M21.8808 11.46C21.8808 12.1139 21.3521 12.6426 20.6982 12.6426C20.0443 12.6426 19.5156 12.1139 19.5156 11.46C19.5156 10.806 20.0443 10.2773 20.6982 10.2773C21.3521 10.2773 21.8808 10.806 21.8808 11.46Z" fill="white"/>
</svg>
