<svg width="32" height="32" viewBox="0 0 32 32" fill="none" xmlns="http://www.w3.org/2000/svg">
<path d="M32 16C32 24.8366 24.8366 32 16 32C7.16344 32 0 24.8366 0 16C0 7.16344 7.16344 0 16 0C24.8366 0 32 7.16344 32 16Z" fill="#939393"/>
<path fill-rule="evenodd" clip-rule="evenodd" d="M13.8561 16.7604L7.66535 23.8268H10.4078L15.1463 18.4036L19.3218 23.8279L24.6693 23.7987L17.8894 14.8334L23.6752 8.20596L20.9768 8.17578L16.6065 13.1565L12.8673 8.18391L7.33594 8.17791L13.8561 16.7604ZM21.4306 22.2002L20.0467 22.1959L10.5388 9.74841H12.0275L21.4306 22.2002Z" fill="white"/>
</svg>
